<svg width="320" height="320" viewBox="0 0 320 320" fill="none" xmlns="http://www.w3.org/2000/svg">
<g clip-path="url(#clip0_17_16)">
<path d="M243.636 0H76.364C34.1893 0 0 34.1893 0 76.364V243.636C0 285.811 34.1893 320 76.364 320H243.636C285.811 320 320 285.811 320 243.636V76.364C320 34.1893 285.811 0 243.636 0Z" fill="#9F5FFF"/>
<path d="M146.684 206.376C182.902 170.158 203.218 149.842 239.436 113.625H186.431C170.901 129.155 162.2 137.855 146.684 153.371V206.376Z" fill="#E9E9E9"/>
<path d="M80.293 206.376C116.51 170.158 136.827 149.842 173.044 113.625H120.039C104.509 129.155 95.8086 137.855 80.293 153.371V206.376Z" fill="#E9E9E9"/>
<path d="M80.293 113.625V139.984C88.3508 131.926 96.923 123.354 106.652 113.625H80.293Z" fill="#E9E9E9"/>
</g>
<defs>
<clipPath id="clip0_17_16">
<rect width="320" height="320" fill="white"/>
</clipPath>
</defs>
</svg>
